
<svg version="1.0" xmlns="http://www.w3.org/2000/svg"
 width="194.000000pt" height="165.000000pt" viewBox="0 0 194.000000 165.000000"
 preserveAspectRatio="xMidYMid meet">
<g transform="translate(0.000000,165.000000) scale(0.050000,-0.050000)"
fill="#5407e4" stroke="none">
<path d="M1596 3283 c35 -22 -14 -63 -85 -71 -28 -3 -57 -11 -64 -19 -8 -7
-50 -13 -95 -13 -60 -1 -74 -6 -52 -20 31 -20 27 -21 -59 -30 -27 -3 -53 -15
-57 -27 -4 -13 -19 -23 -34 -23 -15 0 -45 -22 -66 -50 -22 -27 -48 -50 -58
-50 -11 0 -40 -22 -66 -50 -26 -27 -54 -50 -63 -50 -57 0 -282 -278 -258 -318
10 -18 -52 -40 -84 -30 -43 13 -47 -23 -5 -39 33 -13 41 -104 11 -123 -11 -6
-25 11 -32 38 -8 31 -23 45 -40 39 -20 -8 -23 -21 -10 -45 10 -18 15 -80 12
-138 -7 -123 11 -133 47 -29 15 41 38 89 52 105 14 17 41 61 60 98 50 100 341
381 474 459 608 356 1264 307 1792 -134 153 -127 404 -501 404 -600 0 -11 13
-45 28 -76 43 -86 69 -295 62 -498 -40 -1136 -1311 -1806 -2278 -1200 -199
124 -483 407 -445 444 6 7 -8 37 -33 66 -57 69 -189 334 -205 410 -9 47 -16
53 -32 30 -15 -22 -22 -23 -30 -4 -15 37 -41 30 -53 -15 -6 -22 -4 -40 3 -40
7 0 15 -31 17 -70 5 -95 38 -155 57 -105 7 19 22 35 32 35 11 0 14 -9 7 -20
-7 -11 -2 -20 10 -20 15 0 19 -21 10 -58 -16 -74 26 -150 64 -119 20 17 26 8
26 -41 0 -34 11 -62 23 -62 13 0 18 -5 12 -12 -21 -21 -97 33 -82 58 8 13 -2
11 -22 -6 -33 -27 -34 -31 -4 -36 20 -4 33 -26 33 -55 0 -55 29 -65 48 -17 15
40 62 26 62 -19 0 -18 23 -54 51 -78 28 -25 62 -72 76 -106 34 -85 121 -180
157 -173 17 4 43 -12 59 -35 22 -31 44 -39 88 -31 52 9 59 5 59 -40 0 -32 11
-50 31 -50 19 0 26 9 17 23 -9 14 -5 18 8 9 12 -7 16 -29 9 -48 -11 -30 -8
-30 21 -7 28 23 35 23 45 -2 6 -16 38 -30 73 -31 34 -1 68 -11 76 -24 23 -38
283 -118 344 -106 36 7 56 3 56 -13 0 -43 391 -16 520 35 60 24 134 44 165 44
30 0 55 10 55 21 0 12 9 16 20 9 11 -7 20 -4 20 7 0 11 -11 25 -25 32 -14 6 4
7 40 2 48 -8 65 -2 65 20 0 16 14 29 31 29 17 0 52 14 79 32 26 17 60 33 74
36 70 12 116 38 116 64 0 16 14 34 30 41 17 6 30 21 30 32 0 23 78 95 103 95
9 0 17 17 17 38 0 21 18 42 41 48 23 6 47 29 52 51 8 27 22 36 44 28 18 -6 26
-4 18 5 -8 9 -5 28 8 43 16 20 16 27 -2 27 -14 0 3 35 37 78 34 43 62 98 62
122 0 24 20 72 44 106 24 33 33 55 20 46 -13 -8 -24 -6 -24 5 0 26 56 45 64
22 3 -11 6 19 6 66 1 47 9 103 19 125 10 22 20 75 23 118 3 43 17 85 31 94 18
12 19 17 4 18 -35 0 -53 111 -27 159 17 32 15 71 -9 163 -17 67 -31 150 -32
185 0 34 -13 80 -29 101 -16 21 -25 44 -20 52 5 8 -9 31 -30 50 -22 20 -40 62
-40 94 0 36 -19 75 -50 104 -27 26 -50 66 -50 89 0 24 -13 43 -28 43 -15 0
-42 37 -60 82 -20 49 -43 78 -58 72 -16 -6 -27 9 -30 38 -2 31 7 48 26 48 17
0 30 9 30 20 0 11 -8 20 -19 20 -10 0 -24 -9 -31 -20 -21 -33 -79 -22 -105 20
-14 22 -37 40 -50 40 -14 1 -47 18 -75 40 -27 22 -64 39 -82 40 -33 0 -78 77
-79 136 0 32 -2 32 -27 -1 -32 -43 -92 -46 -92 -5 0 22 -15 26 -60 17 -33 -7
-60 -4 -60 7 0 10 -49 39 -110 64 -60 25 -110 54 -110 64 0 10 -156 18 -355
18 -195 0 -343 -8 -329 -17z"/>
<path d="M1670 2937 c-44 -12 -116 -20 -160 -19 -213 6 -567 -218 -729 -461
-107 -160 -107 -196 0 -188 73 6 140 31 82 31 -12 0 -23 14 -23 30 0 17 7 30
17 30 9 0 28 21 42 47 14 27 40 47 58 45 18 -1 31 9 28 22 -9 49 75 205 106
193 31 -12 40 -47 11 -47 -9 0 -22 -22 -27 -49 -9 -48 -8 -48 47 -20 36 19 57
47 62 84 7 63 75 91 77 31 1 -30 4 -29 19 8 33 81 108 103 93 26 -11 -56 -8
-62 22 -50 19 8 51 16 70 17 54 4 47 40 -14 70 -52 26 -53 29 -21 60 27 26 37
27 44 7 6 -15 32 -35 59 -45 27 -11 44 -28 37 -39 -7 -11 1 -14 19 -8 34 14
42 48 11 48 -42 0 -18 36 25 37 25 0 94 7 153 15 96 12 107 10 96 -19 -8 -22
-2 -33 18 -33 17 0 25 9 18 20 -17 27 -1 25 82 -10 l71 -29 -35 -59 c-42 -71
-108 -96 -108 -41 0 59 -33 63 -69 7 -25 -37 -48 -49 -87 -45 -30 3 -65 -1
-79 -10 -15 -9 -25 -5 -25 11 -1 19 -6 18 -20 -4 -14 -20 -25 -23 -35 -9 -33
48 -85 49 -85 3 1 -161 399 -217 583 -82 288 213 -32 527 -433 425z"/>
<path d="M2400 2813 c0 -15 10 -55 21 -88 73 -208 -173 -425 -481 -425 -169 0
-459 123 -460 195 0 14 -8 25 -18 25 -10 0 -34 6 -52 13 -32 12 -32 8 -2 -49
18 -34 32 -76 32 -94 0 -18 9 -27 20 -20 11 7 15 -1 8 -17 -8 -22 5 -32 45
-37 42 -4 59 -18 64 -53 5 -38 16 -45 54 -38 26 5 43 2 37 -8 -6 -9 24 -17 66
-18 76 0 76 0 26 -29 -63 -36 2 -44 89 -10 32 12 51 12 51 0 0 -37 -240 -66
-273 -34 -8 8 -41 15 -75 16 -34 0 -51 6 -37 11 14 6 25 19 25 29 0 28 -85 20
-128 -12 -43 -33 -152 14 -152 64 0 14 -13 26 -30 26 -42 0 -38 -10 28 -78
427 -437 1544 -57 1331 454 -49 118 -189 249 -189 177z"/>
<path d="M3720 2696 c0 -68 26 -58 49 19 10 33 6 45 -18 45 -22 0 -31 -19 -31
-64z"/>
<path d="M2834 2506 c-5 -20 -11 -72 -12 -115 -7 -166 -188 -352 -433 -448
-331 -129 -739 -90 -1134 109 -74 37 -135 58 -135 46 0 -27 82 -96 115 -97 38
-1 30 -37 -10 -47 -30 -8 -30 -10 -2 -12 18 -1 37 -18 42 -39 5 -20 24 -36 41
-36 18 0 28 7 22 16 -6 10 4 17 22 17 18 0 27 -9 20 -20 -11 -18 3 -24 43 -18
7 1 19 -10 28 -24 8 -13 45 -24 82 -22 71 2 155 -45 128 -71 -9 -8 -20 -4 -25
10 -5 14 -21 25 -35 25 -36 0 -56 -84 -25 -105 13 -9 1 -11 -29 -4 -29 7 -58
3 -66 -9 -15 -25 -92 -30 -89 -7 9 55 -6 69 -65 60 -66 -9 -160 27 -226 89
-22 21 -54 31 -75 25 -20 -7 -36 -2 -36 10 0 11 -18 21 -40 21 -49 0 -52 31
-5 58 48 27 18 50 -31 24 -35 -19 -43 -13 -61 38 -12 33 -27 60 -35 60 -8 0
-9 -6 -2 -13 8 -7 5 -24 -5 -36 -25 -30 129 -209 246 -287 681 -457 1992 -76
1926 559 -18 167 -115 337 -139 243z m-714 -830 c0 -10 -9 -13 -20 -6 -11 7
-20 1 -20 -14 -1 -20 -5 -20 -18 2 -10 15 -32 22 -50 16 -18 -7 -32 -4 -32 7
0 10 18 19 40 19 22 0 40 10 40 22 0 16 9 15 30 -2 17 -14 30 -33 30 -44z
m-160 -12 c0 -14 -11 -23 -25 -21 -14 3 -43 -4 -65 -16 -54 -28 -210 -11 -210
24 0 14 -16 29 -35 33 -19 4 48 7 150 6 138 0 185 -7 185 -26z"/>
<path d="M647 2215 c8 -40 6 -55 -5 -38 -12 19 -21 21 -31 5 -7 -12 -8 -22 -2
-22 6 0 -2 -33 -19 -72 -16 -40 -30 -81 -30 -92 0 -36 41 8 69 75 18 43 46 72
79 80 43 11 48 19 31 52 -12 21 -30 33 -40 26 -10 -6 -19 3 -19 20 0 17 -10
31 -22 31 -15 0 -19 -23 -11 -65z"/>
<path d="M3098 1905 c-142 -431 -1045 -669 -1714 -453 -266 86 -624 318 -624
405 0 13 -9 23 -20 23 -11 0 -20 -18 -20 -40 0 -22 -9 -40 -20 -40 -11 0 -20
-10 -20 -22 0 -13 22 -16 60 -8 57 13 59 11 48 -46 -7 -35 -3 -65 10 -73 13
-8 18 -21 12 -30 -19 -31 49 -39 78 -10 21 21 34 23 43 7 8 -12 2 -31 -13 -42
-19 -13 -12 -14 22 -4 40 11 46 9 29 -14 -28 -37 -37 -158 -13 -158 11 0 24
19 30 42 7 24 21 36 34 28 12 -7 34 -3 49 9 20 17 35 14 59 -10 40 -40 25 -69
-29 -59 -22 4 -35 0 -29 -10 15 -24 -57 -44 -102 -27 -70 26 -148 94 -148 129
0 20 -20 42 -44 49 -24 8 -57 27 -73 43 -30 30 -62 7 -63 -46 0 -35 162 -198
260 -261 808 -522 2259 -163 2260 558 0 150 -24 174 -62 60z m-1798 -555 c-20
-24 -10 -33 66 -53 138 -37 194 -85 109 -93 -75 -6 -216 33 -245 69 -11 13
-36 27 -54 30 -24 5 -30 16 -18 34 13 21 26 22 59 4 35 -18 43 -17 43 8 0 17
15 31 32 31 27 0 28 -6 8 -30z m605 -159 c17 6 37 2 44 -10 9 -13 -12 -21 -57
-21 -56 0 -68 6 -59 32 9 21 17 24 26 9 8 -12 28 -17 46 -10z"/>
<path d="M413 1835 c-18 -66 -16 -75 16 -75 20 0 28 19 25 60 -5 71 -24 78
-41 15z"/>
<path d="M609 1767 c12 -47 10 -51 -18 -28 -48 40 -41 -42 8 -102 l40 -47 0
53 c1 30 10 57 20 60 29 10 2 92 -33 106 -24 9 -28 1 -17 -42z"/>
<path d="M460 1670 c-3 -22 -3 -56 -1 -75 2 -19 -4 -35 -14 -35 -10 0 -14 -28
-9 -61 6 -41 18 -58 36 -51 34 13 52 -16 61 -96 13 -122 113 -303 226 -412
616 -588 1986 -459 2336 220 95 183 85 258 -19 145 -620 -680 -2334 -439
-2599 365 -13 40 -13 40 -17 0z m500 -688 l50 -41 -55 0 c-30 -1 -55 8 -55 19
0 11 -12 20 -28 20 -43 0 -75 49 -49 75 15 15 30 13 54 -6 18 -15 56 -45 83
-67z m156 -61 c5 -15 -2 -22 -18 -17 -16 5 -39 -5 -52 -22 -22 -28 -25 -27
-25 11 -1 64 76 86 95 28z m220 -91 c-7 -44 -43 -52 -108 -24 -72 30 -50 71
36 68 66 -3 77 -9 72 -44z m164 -30 c0 -11 23 -20 50 -20 28 0 50 -9 50 -20 0
-23 -151 -25 -209 -2 -26 10 -31 20 -15 30 13 8 32 9 43 3 10 -6 24 -3 31 9
16 26 50 26 50 0z m367 -34 c8 -8 55 -11 104 -8 103 6 121 -28 24 -45 -190
-34 -449 -18 -284 17 32 7 73 20 89 30 38 22 50 23 67 6z"/>
<path d="M869 690 c456 -437 1080 -523 1651 -228 193 100 265 199 84 115 -477
-219 -1218 -160 -1678 135 -147 94 -169 85 -57 -22z"/>
</g>
</svg>
